<?xml version="1.0" encoding="UTF-8"?>
<svg xmlns="http://www.w3.org/2000/svg" xmlns:xlink="http://www.w3.org/1999/xlink" width="512px" height="512px" viewBox="0 0 512 512" version="1.1">
<g id="surface1">
<path style=" stroke:none;fill-rule:nonzero;fill:rgb(0%,0%,0%);fill-opacity:1;" d="M 256 469.332031 C 225.777344 469.332031 197.6875 463.910156 171.734375 453.066406 C 145.777344 442.222656 123.199219 427.199219 104 408 C 84.800781 388.800781 69.777344 366.222656 58.933594 340.265625 C 48.089844 314.3125 42.667969 286.222656 42.667969 256 C 42.667969 226.132812 48.089844 198.222656 58.933594 172.265625 C 69.777344 146.3125 84.800781 123.734375 104 104.535156 C 123.199219 85.332031 145.777344 70.222656 171.734375 59.199219 C 197.6875 48.179688 225.777344 42.667969 256 42.667969 C 285.867188 42.667969 313.777344 48.179688 339.734375 59.199219 C 365.6875 70.222656 388.265625 85.332031 407.464844 104.535156 C 426.667969 123.734375 441.777344 146.3125 452.800781 172.265625 C 463.820312 198.222656 469.332031 226.132812 469.332031 256 C 469.332031 258.84375 469.246094 261.6875 469.066406 264.535156 C 468.890625 267.378906 468.621094 270.222656 468.265625 273.066406 C 463.644531 270.222656 458.578125 267.199219 453.066406 264 C 447.554688 260.800781 442.3125 258.132812 437.332031 256 C 437.332031 204.445312 420 161.332031 385.332031 126.667969 C 350.667969 92 307.554688 74.667969 256 74.667969 C 232.535156 74.667969 210.667969 78.488281 190.398438 86.132812 C 170.132812 93.777344 152.535156 104.179688 137.601562 117.332031 L 283.199219 262.933594 C 278.578125 265.066406 274.132812 267.378906 269.867188 269.867188 C 265.601562 272.355469 261.332031 275.023438 257.066406 277.867188 L 116.800781 137.601562 C 103.644531 152.890625 93.332031 170.667969 85.867188 190.933594 C 78.398438 211.199219 74.667969 232.890625 74.667969 256 C 74.667969 300.445312 87.910156 338.933594 114.398438 371.464844 C 140.890625 404 174.933594 424.535156 216.535156 433.066406 C 221.867188 439.109375 228.089844 445.511719 235.199219 452.265625 C 242.3125 459.023438 249.246094 464.710938 256 469.332031 Z M 362.667969 437.332031 C 385.421875 437.332031 406.933594 431.554688 427.199219 420 C 447.464844 408.445312 464 392.890625 476.800781 373.332031 C 464 353.777344 447.464844 338.222656 427.199219 326.667969 C 406.933594 315.109375 385.421875 309.332031 362.667969 309.332031 C 339.910156 309.332031 318.398438 315.109375 298.132812 326.667969 C 277.867188 338.222656 261.332031 353.777344 248.535156 373.332031 C 261.332031 392.890625 277.867188 408.445312 298.132812 420 C 318.398438 431.554688 339.910156 437.332031 362.667969 437.332031 Z M 362.667969 469.332031 C 328.535156 469.332031 298.042969 460.355469 271.199219 442.398438 C 244.355469 424.445312 225.066406 401.421875 213.332031 373.332031 C 225.066406 345.246094 244.355469 322.222656 271.199219 304.265625 C 298.042969 286.3125 328.535156 277.332031 362.667969 277.332031 C 396.800781 277.332031 427.289062 286.3125 454.132812 304.265625 C 480.976562 322.222656 500.265625 345.246094 512 373.332031 C 500.265625 401.421875 480.976562 424.445312 454.132812 442.398438 C 427.289062 460.355469 396.800781 469.332031 362.667969 469.332031 Z M 362.667969 405.332031 C 353.777344 405.332031 346.222656 402.222656 340 396 C 333.777344 389.777344 330.667969 382.222656 330.667969 373.332031 C 330.667969 364.445312 333.777344 356.890625 340 350.667969 C 346.222656 344.445312 353.777344 341.332031 362.667969 341.332031 C 371.554688 341.332031 379.109375 344.445312 385.332031 350.667969 C 391.554688 356.890625 394.667969 364.445312 394.667969 373.332031 C 394.667969 382.222656 391.554688 389.777344 385.332031 396 C 379.109375 402.222656 371.554688 405.332031 362.667969 405.332031 Z M 362.667969 405.332031 "/>
</g>
</svg>
